<?xml version="1.0" standalone="no"?>
<!DOCTYPE svg PUBLIC "-//W3C//DTD SVG 20010904//EN"
 "http://www.w3.org/TR/2001/REC-SVG-20010904/DTD/svg10.dtd">
<svg version="1.0" xmlns="http://www.w3.org/2000/svg"
 width="1534.000000pt" height="1534.000000pt" viewBox="0 0 1534.000000 1534.000000"
 preserveAspectRatio="xMidYMid meet">
<metadata>
Created by potrace 1.11, written by Peter Selinger 2001-2013
</metadata>
<g transform="translate(0.000000,1534.000000) scale(0.100000,-0.100000)"
fill="#000000" stroke="none">
<path d="M9055 14794 c-27 -8 -66 -19 -85 -24 -683 -192 -1425 -451 -1843
-644 -43 -20 -80 -36 -82 -36 -14 0 -484 -230 -623 -304 -383 -207 -761 -451
-1072 -692 -69 -54 -127 -101 -130 -104 -3 -3 -36 -33 -75 -65 -192 -160 -487
-465 -610 -630 -40 -53 -42 -56 -66 -85 -40 -48 -197 -285 -251 -380 -55 -95
-149 -280 -180 -355 -9 -22 -26 -62 -37 -88 -24 -56 -72 -195 -97 -282 -9 -33
-19 -64 -20 -70 -2 -5 -12 -48 -23 -95 -19 -82 -27 -123 -37 -185 -3 -16 -7
-41 -9 -55 -15 -91 -20 -191 -20 -375 0 -226 5 -288 40 -482 3 -16 14 -64 24
-108 11 -44 17 -82 15 -84 -5 -5 -28 16 -157 139 -281 267 -497 632 -582 983
-26 109 -42 269 -40 398 2 65 0 119 -4 119 -15 0 -421 -421 -516 -535 -55 -66
-102 -122 -105 -125 -20 -18 -221 -296 -286 -395 -336 -510 -569 -1075 -653
-1580 -39 -235 -45 -316 -45 -565 1 -178 6 -261 26 -405 6 -44 12 -87 13 -95
12 -93 56 -280 101 -435 81 -275 236 -613 382 -835 265 -402 676 -854 1187
-1305 38 -33 73 -65 79 -70 24 -22 280 -239 428 -363 222 -185 529 -363 918
-531 80 -35 159 -69 175 -76 104 -46 426 -159 595 -209 104 -30 339 -93 371
-100 13 -2 72 -16 131 -30 104 -25 347 -72 418 -82 19 -3 46 -7 60 -9 30 -6
150 -24 205 -31 22 -3 63 -9 90 -14 28 -5 73 -12 100 -16 28 -3 53 -8 56 -10
3 -1 32 -6 65 -9 32 -3 70 -8 84 -10 86 -15 282 -20 795 -20 506 1 694 5 885
20 25 2 83 6 130 10 47 3 101 8 120 10 19 2 69 7 110 10 41 4 89 8 105 10 17
2 57 6 90 10 33 3 71 8 85 10 14 2 50 7 80 10 30 3 80 13 110 22 30 8 63 17
72 18 98 19 470 138 697 222 1106 411 1900 1001 2381 1768 80 128 270 498 270
526 0 8 4 19 9 25 12 12 91 223 135 363 75 231 150 549 181 766 4 22 8 51 10
65 2 14 7 52 10 85 4 33 8 67 10 75 2 8 7 44 10 80 3 36 8 88 10 115 16 169
20 281 20 535 0 251 -7 431 -19 510 -2 14 -7 52 -11 85 -4 32 -8 67 -10 76 -2
9 -6 34 -9 55 -32 201 -110 503 -166 644 -10 25 -33 81 -50 125 -27 66 -80
174 -169 343 -35 66 -182 277 -270 387 -88 111 -381 417 -453 475 l-31 24 7
-24 c53 -186 67 -269 71 -435 6 -295 -81 -639 -255 -1002 -133 -278 -258 -470
-618 -955 -85 -115 -155 -208 -157 -208 -2 0 -2 7 -1 15 2 14 -6 95 -19 200
-3 28 -10 64 -15 80 -5 17 -12 46 -15 65 -8 47 -57 207 -93 305 -144 385 -413
815 -868 1387 -73 91 -142 177 -153 190 -78 92 -397 481 -540 658 -95 118
-178 222 -185 231 -33 40 -209 284 -270 373 -155 227 -280 452 -399 716 -44
98 -125 367 -141 465 -32 195 -38 258 -38 383 -1 99 10 280 17 292 2 3 6 26 9
52 9 69 52 232 83 313 105 281 288 537 523 733 30 25 59 50 65 54 13 11 -1 9
-60 -8z"/>
<path d="M324 6939 c-24 -8 -63 -56 -86 -104 -49 -98 -67 -321 -41 -492 45
-302 234 -625 548 -938 65 -64 96 -108 163 -223 45 -78 82 -144 82 -146 0 -2
-33 14 -72 34 -63 33 -227 93 -285 104 -56 12 -73 20 -73 35 0 35 -50 119 -93
157 -107 95 -262 94 -375 -1 -17 -14 -44 -53 -61 -86 -27 -54 -30 -69 -28
-137 4 -88 27 -145 84 -198 119 -112 286 -106 403 15 l55 57 70 -12 c114 -19
219 -61 345 -137 66 -40 189 -127 224 -159 11 -10 22 -18 26 -18 6 0 18 -15
150 -195 140 -190 302 -380 493 -578 26 -27 47 -51 47 -54 0 -7 -58 27 -106
62 -55 41 -81 68 -203 210 -166 194 -377 389 -490 454 -152 86 -256 124 -406
146 -136 21 -448 28 -515 12 -116 -28 -150 -67 -116 -132 43 -79 200 -228 390
-371 106 -80 332 -226 400 -259 76 -37 234 -80 331 -91 33 -3 69 -8 80 -10 20
-5 257 -6 272 -2 17 4 149 -24 222 -48 42 -14 125 -46 185 -72 95 -39 120 -55
190 -120 45 -41 148 -131 230 -199 l148 -124 -43 6 c-24 3 -51 8 -59 10 -8 2
-49 7 -90 10 -41 3 -86 8 -100 10 -14 2 -54 7 -90 11 -36 4 -67 8 -70 9 -3 1
-25 5 -50 9 -25 5 -62 15 -82 23 -33 13 -39 22 -58 77 -41 124 -144 200 -269
200 -145 -1 -258 -99 -280 -242 -40 -269 275 -436 472 -250 56 54 81 60 187
45 186 -26 571 -139 965 -284 184 -68 199 -74 305 -138 101 -61 139 -83 325
-185 77 -42 148 -79 158 -83 24 -9 21 -24 -7 -29 -36 -7 -191 0 -267 11 -107
17 -186 47 -334 126 -495 267 -719 340 -1035 338 -154 0 -293 -33 -423 -101
-66 -34 -136 -94 -138 -119 -1 -7 -2 -19 -3 -25 -2 -7 7 -30 18 -52 76 -141
445 -340 751 -405 75 -16 124 -18 309 -16 122 2 246 6 276 9 30 3 87 8 125 11
134 11 249 23 284 30 39 7 100 15 151 20 30 3 62 8 70 10 8 2 47 7 85 10 39 4
86 9 105 11 73 8 237 18 290 17 46 0 76 -10 175 -57 145 -69 144 -69 325 -146
80 -34 163 -70 185 -81 l40 -19 -70 6 c-119 10 -282 6 -440 -11 -54 -5 -150
-17 -167 -20 -9 -2 -48 -7 -85 -10 -37 -4 -71 -9 -74 -11 -14 -8 -191 -16
-223 -10 -21 4 -50 22 -73 45 -64 64 -116 86 -203 86 -121 0 -208 -55 -258
-164 -66 -145 -7 -307 141 -382 58 -30 165 -30 228 0 57 27 116 83 134 126 33
77 125 116 360 150 22 4 51 8 65 10 14 2 66 7 115 10 50 3 101 8 115 10 39 6
310 17 460 19 121 1 262 -8 279 -18 3 -2 29 -7 56 -11 106 -14 278 -60 415
-112 42 -16 367 -128 445 -154 88 -29 124 -48 95 -50 -8 0 -24 -3 -35 -5 -59
-14 -429 -6 -512 10 -12 3 -49 7 -82 11 -33 3 -68 7 -78 9 -10 2 -47 7 -83 11
-36 4 -67 8 -70 10 -3 2 -35 6 -70 9 -36 4 -83 8 -105 11 -314 39 -685 38
-801 -1 -194 -65 -392 -242 -370 -330 32 -125 763 -291 1107 -251 149 17 387
109 539 208 99 64 166 95 291 132 106 32 261 69 346 83 19 3 43 7 52 9 111 21
119 20 354 -56 125 -40 227 -76 227 -79 0 -3 -39 -13 -87 -23 -49 -9 -97 -18
-108 -21 -11 -2 -56 -11 -100 -21 -44 -9 -105 -22 -135 -30 -30 -8 -66 -16
-80 -19 -183 -35 -525 -148 -658 -217 -147 -77 -209 -138 -216 -214 -7 -71 45
-94 215 -92 126 1 135 3 284 87 58 32 265 167 275 179 9 11 234 158 295 193
117 67 287 131 381 144 39 5 130 -15 209 -47 11 -4 27 -10 35 -12 9 -3 3 -7
-15 -12 -257 -60 -526 -206 -700 -379 -168 -167 -200 -310 -75 -331 19 -3 42
-8 50 -10 58 -16 436 -27 540 -15 89 10 160 33 195 63 49 42 49 71 -1 144 -65
94 -85 135 -80 171 8 69 54 109 203 178 l102 47 33 -25 c60 -46 146 -82 249
-104 55 -12 227 -6 294 10 70 17 149 52 193 87 28 21 27 22 169 -47 191 -93
215 -162 106 -306 -73 -96 -74 -135 -6 -180 46 -31 87 -41 205 -53 117 -12
390 -7 473 9 11 2 40 7 65 11 65 11 97 30 105 63 7 36 -18 113 -55 167 -61 88
-204 214 -345 303 -97 61 -285 139 -410 171 l-69 17 60 21 c143 52 155 53 246
33 99 -22 226 -72 328 -130 41 -24 189 -120 330 -214 140 -94 290 -188 333
-209 76 -38 79 -38 200 -39 121 0 184 12 201 41 27 43 1 117 -61 172 -77 70
-239 147 -439 210 -91 29 -322 93 -369 104 -11 2 -128 27 -260 55 -132 28
-244 52 -250 54 -5 2 71 29 170 60 99 32 205 66 236 77 31 10 67 16 80 14 13
-2 42 -6 64 -9 149 -22 348 -68 482 -111 87 -29 157 -62 232 -112 110 -73 299
-156 444 -195 64 -17 110 -22 207 -23 113 0 252 9 305 19 11 2 43 7 70 10 132
17 340 69 473 118 70 26 155 85 160 111 2 10 -6 36 -17 60 -62 126 -284 269
-439 283 -31 3 -68 7 -82 10 -31 5 -283 5 -370 -1 -122 -8 -207 -16 -360 -35
-41 -5 -97 -12 -125 -15 -27 -3 -61 -8 -75 -10 -22 -4 -64 -10 -150 -20 -14
-2 -54 -7 -90 -12 -67 -8 -409 -10 -468 -3 -19 3 -35 7 -38 11 -2 4 51 25 119
48 67 23 230 80 362 126 132 47 249 87 260 89 11 2 47 11 80 19 33 8 76 18 95
21 19 3 44 8 56 10 12 2 45 7 74 11 29 4 62 9 74 11 25 6 303 5 363 0 22 -2
104 -7 180 -11 77 -3 153 -8 169 -10 16 -2 62 -6 102 -10 41 -3 81 -8 90 -10
9 -1 37 -6 62 -9 95 -15 217 -48 256 -71 26 -15 49 -41 67 -74 54 -99 150
-151 267 -147 81 3 132 28 192 95 156 173 44 455 -187 474 -87 7 -185 -34
-237 -99 -33 -41 -78 -46 -238 -30 -41 5 -84 10 -95 12 -27 4 -87 12 -160 20
-33 3 -68 8 -77 9 -93 18 -431 26 -523 13 -40 -6 -12 9 145 76 107 45 266 116
354 156 l158 72 132 -6 c72 -4 142 -9 156 -10 14 -2 57 -7 95 -10 39 -4 81 -9
95 -11 14 -2 48 -7 75 -10 28 -3 67 -8 88 -11 59 -9 79 -12 137 -18 30 -4 69
-9 85 -11 17 -2 65 -7 107 -10 42 -3 91 -8 109 -10 59 -7 332 -18 444 -17 144
1 220 14 367 62 309 102 583 282 612 401 13 58 -85 144 -220 194 -134 49 -233
64 -399 60 -293 -6 -510 -80 -976 -332 -146 -79 -247 -117 -349 -130 -83 -11
-273 -10 -277 2 -1 6 16 19 40 30 23 11 62 31 87 45 25 15 86 48 135 75 50 26
145 81 212 121 68 41 146 83 175 95 144 57 428 156 583 204 50 15 101 31 115
36 134 45 403 105 490 108 57 2 68 -1 86 -21 82 -92 177 -126 285 -103 180 39
276 249 189 415 -109 207 -406 199 -506 -15 -13 -27 -24 -58 -24 -67 0 -24
-34 -44 -105 -61 -70 -18 -120 -25 -390 -52 -33 -4 -75 -10 -92 -15 -19 -5
-35 -5 -39 1 -3 5 1 9 10 9 8 0 16 3 18 8 2 4 59 54 128 112 69 57 130 109
136 115 154 146 187 166 391 240 162 60 203 67 393 70 96 2 189 5 205 8 17 3
50 9 75 12 148 21 283 70 413 152 92 58 309 209 356 247 240 200 338 309 329
368 -4 31 -58 64 -126 79 -97 21 -357 13 -552 -16 -99 -14 -281 -83 -365 -137
-169 -110 -308 -239 -500 -463 -33 -38 -65 -75 -72 -82 -6 -7 -20 -23 -30 -36
-26 -32 -117 -107 -130 -107 -6 0 -13 -3 -15 -7 -1 -5 -19 -16 -38 -27 -30
-16 -25 -8 35 54 39 40 77 80 85 89 8 10 38 42 65 72 114 126 241 283 372 459
79 106 118 149 179 195 110 85 197 140 289 184 113 54 174 73 276 87 44 6 47
5 67 -27 27 -43 73 -79 129 -101 130 -52 287 10 353 138 34 67 35 198 2 259
-120 217 -416 209 -513 -13 -10 -24 -19 -50 -19 -58 0 -8 -6 -16 -12 -19 -7
-2 -58 -16 -113 -31 -55 -15 -107 -31 -115 -35 -147 -73 -222 -98 -175 -59 8
7 15 16 15 21 0 5 10 26 23 47 13 20 41 69 61 107 26 47 70 103 136 170 237
242 399 476 483 700 61 161 88 388 66 555 -19 138 -82 260 -143 276 -90 22
-408 -244 -496 -415 -27 -54 -124 -382 -144 -491 -9 -50 -25 -136 -31 -170
-11 -64 -13 -344 -3 -406 l10 -60 -86 -140 c-48 -76 -92 -148 -99 -159 -45
-73 -221 -335 -223 -332 -2 1 9 50 22 107 32 133 32 133 44 207 21 127 24 182
23 346 -1 127 2 167 12 167 22 0 73 30 104 62 116 119 85 316 -63 396 -48 26
-171 23 -216 -5 -91 -56 -123 -111 -127 -209 -3 -99 31 -166 115 -221 22 -15
22 -18 18 -162 -3 -80 -7 -164 -11 -186 -3 -22 -7 -56 -10 -75 -57 -390 -190
-793 -307 -926 -91 -104 -305 -325 -371 -384 l-28 -25 9 25 c16 42 75 165 82
170 3 3 17 21 30 40 13 19 44 58 70 87 54 61 113 160 159 263 18 41 37 84 42
95 35 80 87 248 103 335 26 141 27 444 1 605 -28 182 -77 327 -125 375 -57 57
-189 -23 -282 -171 -65 -103 -166 -353 -182 -450 -3 -19 -10 -50 -16 -69 -5
-19 -13 -55 -16 -80 -3 -25 -7 -56 -10 -70 -6 -32 -5 -233 1 -285 2 -22 7 -65
10 -95 3 -30 9 -71 12 -90 3 -19 6 -46 8 -60 1 -14 6 -54 11 -90 15 -118 10
-360 -10 -451 -3 -13 -7 -37 -10 -54 -10 -72 -29 -151 -39 -166 -39 -51 -329
-279 -355 -279 -75 0 -56 249 35 450 46 101 74 134 136 163 64 29 118 82 149
146 33 68 31 178 -4 246 -54 103 -145 159 -259 158 -254 -2 -371 -314 -186
-495 45 -44 51 -54 49 -87 -12 -154 -164 -646 -249 -803 -22 -42 -43 -63 -104
-103 -154 -102 -308 -196 -449 -276 l-85 -49 65 58 c68 60 203 194 258 255
132 149 294 481 336 692 14 69 16 84 23 170 27 337 -18 615 -98 615 -28 0
-105 -81 -239 -250 -67 -85 -170 -204 -229 -265 -118 -120 -158 -169 -189
-230 -26 -52 -59 -161 -66 -217 -3 -23 -8 -53 -10 -66 -26 -126 -24 -532 3
-566 16 -21 2 -80 -42 -172 -83 -171 -95 -182 -312 -289 -104 -51 -224 -109
-265 -128 -41 -19 -100 -46 -130 -60 -90 -41 -120 -40 -120 6 0 104 279 494
367 512 91 18 157 58 200 124 104 155 60 342 -104 438 -62 36 -183 39 -254 7
-182 -84 -229 -328 -92 -475 l24 -26 -21 -63 c-59 -176 -326 -624 -434 -729
-31 -30 -72 -47 -511 -210 -127 -47 -157 -53 -70 -13 298 136 547 368 667 622
59 124 65 139 86 210 64 215 76 456 26 551 -17 33 -25 33 -140 -2 -154 -47
-376 -175 -535 -309 -281 -237 -548 -589 -635 -841 -14 -41 -36 -92 -49 -114
-37 -64 -127 -140 -265 -225 -77 -47 -111 -67 -235 -135 -193 -105 -278 -154
-326 -186 -31 -21 -91 -48 -134 -60 -76 -22 -78 -22 -91 -4 -20 27 -18 34 14
41 51 13 154 64 216 108 237 169 370 421 320 608 -42 160 -210 282 -481 352
-138 36 -391 69 -518 69 -101 0 -290 -22 -420 -49 -108 -22 -115 -24 -193 -50
-216 -72 -345 -184 -388 -333 -7 -27 -7 -111 1 -150 24 -123 108 -257 231
-370 91 -84 164 -130 261 -167 76 -28 82 -32 69 -49 -13 -18 -23 -18 -111 9
-5 2 -23 7 -40 11 -16 5 -60 28 -98 52 -37 24 -70 43 -73 43 -3 0 -26 14 -51
30 -24 17 -46 30 -48 30 -3 0 -83 43 -177 96 -302 168 -440 271 -486 367 -12
23 -33 77 -47 119 -56 162 -236 427 -424 623 -243 253 -492 421 -741 500 -94
29 -113 31 -130 9 -31 -37 -45 -230 -25 -361 15 -106 86 -327 128 -403 66
-120 85 -151 126 -205 54 -71 137 -155 206 -210 28 -22 52 -42 55 -45 29 -29
249 -157 286 -166 13 -3 27 -11 31 -17 4 -7 0 -8 -13 -3 -10 4 -46 17 -79 28
-33 12 -159 58 -279 104 -255 96 -243 88 -381 294 -153 231 -293 500 -311 596
-1 6 9 23 22 38 101 108 102 287 3 400 -89 101 -231 126 -355 64 -93 -46 -145
-132 -152 -250 -4 -73 -2 -83 27 -143 37 -74 92 -125 164 -149 26 -9 54 -16
61 -16 45 0 233 -227 315 -380 50 -95 60 -163 24 -168 -12 -2 -47 8 -77 22
-31 14 -82 38 -113 52 -165 76 -452 219 -480 240 -58 44 -170 247 -177 322 -1
15 1 34 6 44 32 65 29 414 -6 613 -20 116 -25 133 -48 189 -35 83 -91 158
-204 273 -59 59 -168 185 -242 278 -167 208 -216 254 -253 235 -25 -14 -56
-96 -69 -185 -21 -137 -14 -496 10 -560 5 -13 7 -25 4 -28 -7 -7 72 -237 116
-336 85 -194 160 -301 330 -472 74 -74 153 -150 175 -167 22 -18 37 -32 33
-32 -15 0 -295 169 -483 291 -91 59 -126 88 -143 117 -83 148 -253 703 -252
824 1 37 5 47 34 68 141 104 136 342 -8 451 -61 46 -119 63 -194 56 -104 -9
-189 -70 -235 -166 -29 -64 -29 -179 2 -238 34 -67 78 -111 146 -143 43 -21
69 -41 87 -67 71 -111 136 -326 133 -444 -1 -62 -5 -74 -24 -90 -13 -11 -26
-19 -30 -19 -10 0 -143 105 -261 205 -71 60 -91 84 -99 113 -43 172 -59 313
-56 477 2 77 6 151 9 165 5 27 31 232 42 340 18 179 2 338 -56 543 -98 349
-262 590 -401 590 -36 0 -60 -21 -87 -76 -110 -220 -142 -707 -66 -1005 47
-187 166 -460 241 -554 21 -26 61 -76 88 -110 50 -63 150 -247 139 -257 -6 -7
-283 273 -370 374 -74 85 -92 115 -137 225 -53 127 -127 374 -153 505 -2 11
-6 31 -9 45 -29 136 -47 290 -51 433 l-4 149 38 28 c156 113 129 353 -48 428
-45 19 -135 19 -180 0 -116 -49 -179 -189 -139 -309 19 -54 74 -115 128 -139
l49 -22 -1 -162 c-1 -143 5 -250 17 -311 2 -11 7 -40 11 -65 9 -56 8 -53 40
-179 14 -57 24 -105 23 -106 -7 -7 -312 463 -385 594 -23 41 -25 49 -15 105
24 149 11 362 -34 566 -8 36 -17 76 -20 90 -2 14 -7 33 -10 42 -3 9 -6 25 -8
35 -2 10 -11 41 -20 68 -8 28 -28 94 -44 147 -34 113 -89 201 -184 297 -151
153 -307 252 -364 230z m7006 -4811 c19 -8 56 -31 82 -51 96 -74 169 -100 273
-99 88 1 143 22 254 97 109 73 140 81 210 56 56 -21 136 -97 144 -138 17 -88
-54 -183 -260 -344 l-102 -80 -68 21 c-98 31 -260 31 -367 1 l-78 -22 -117 95
c-139 113 -192 166 -222 225 -45 87 -17 156 92 226 55 36 98 39 159 13z"/>
</g>
</svg>
